# xmcd
#
# Track frame offsets: 
#        150
#        19832
#        46067
#        63537
#        85282
#        105680
#        121880
#        153847
#        172160
#        189002
#        211590
#
# Disc length: 3151 seconds
#
# Revision: 2
# Processed by: cddbd v1.5.1PL0 Copyright (c) Steve Scherf et al.
# Submitted via: ExactAudioCopy v0.95a5
#
DISCID=840c4d0b
DTITLE=Ron Levy's Wild Kingdom - B-3 Blues And Grooves
DYEAR=1993
DGENRE=
TTITLE0=Levtronic Blues
TTITLE1=Summertime
TTITLE2=Smoke 'N Fire
TTITLE3=Gimme A Break
TTITLE4=Prayin' The Blues (Part 1)
TTITLE5=Funk Finger
TTITLE6=Eema's Song
TTITLE7='Mo Chain Smokin'
TTITLE8=Meter Made
TTITLE9=Rooseveltin'
TTITLE10=Prayin' The Blues (Part 2)
EXTD=
EXTT0=
EXTT1=
EXTT2=
EXTT3=
EXTT4=
EXTT5=
EXTT6=
EXTT7=
EXTT8=
EXTT9=
EXTT10=
PLAYORDER=
